Coordinates
version=1
nRows=9
nColumns=63
inDegrees=yes

Units are S.I. units (second, meters, Newtons, ...)
If the header above contains a line with 'inDegrees', this indicates whether rotational values are in degrees (yes) or radians (no).

endheader
time	pelvis_tilt	pelvis_list	pelvis_rotation	pelvis_tx	pelvis_ty	pelvis_tz	hip_flexion_r	hip_adduction_r	hip_rotation_r	knee_angle_r	knee_angle_r_beta	ankle_angle_r	subtalar_angle_r	mtp_angle_r	hip_flexion_l	hip_adduction_l	hip_rotation_l	knee_angle_l	knee_angle_l_beta	ankle_angle_l	subtalar_angle_l	mtp_angle_l	L5_S1_Flex_Ext	L5_S1_Lat_Bending	L5_S1_axial_rotation	L4_L5_Flex_Ext	L4_L5_Lat_Bending	L4_L5_axial_rotation	L3_L4_Flex_Ext	L3_L4_Lat_Bending	L3_L4_axial_rotation	L2_L3_Flex_Ext	L2_L3_Lat_Bending	L2_L3_axial_rotation	L1_L2_Flex_Ext	L1_L2_Lat_Bending	L1_L2_axial_rotation	L1_T12_Flex_Ext	L1_T12_Lat_Bending	L1_T12_axial_rotation	Abs_r3	Abs_r2	Abs_r1	Abs_t1	Abs_t2	neck_flexion	neck_bending	neck_rotation	arm_flex_r	arm_add_r	arm_rot_r	elbow_flex_r	pro_sup_r	wrist_flex_r	wrist_dev_r	arm_flex_l	arm_add_l	arm_rot_l	elbow_flex_l	pro_sup_l	wrist_flex_l	wrist_dev_l
      2.60000000	      3.47174120	     -2.21279874	      0.96266720	     -0.61371899	      0.95929119	      0.34763782	      7.78262339	      5.08241211	    -12.60295198	     18.83904572	      0.32880338	     11.33884597	      0.88485403	      0.00000000	     11.15976920	     -6.94058197	     -3.26150887	     73.67744841	      1.28591406	      5.23792076	     -4.91202667	      0.00000000	      0.00425742	      0.25980546	     -0.11579063	      0.00790645	      0.34554127	     -0.12302755	      0.00699451	      0.63169100	     -0.12302755	      0.00486580	      0.63169100	     -0.10131680	      0.00395344	      0.52979530	     -0.09407989	      0.00243269	      0.40243866	     -0.08684297	      0.03041032	      2.93897136	     -0.64399275	      0.00000000	      0.00000000	      0.00000000	      0.00000000	      0.00000000	      0.14516263	    -12.44969232	      6.99504270	     24.29446893	     52.73609297	      0.00000000	      5.00000013	     -6.97595258	    -13.41318172	     32.67675989	     23.55414232	     54.28935473	      0.00000000	      5.00000013
      2.63333333	      3.03982977	     -2.01526922	     -0.77387806	     -0.57837165	      0.96541975	      0.35076931	      4.65439701	      4.92869990	    -13.58464707	     16.70862193	      0.29162047	     11.98151337	      4.95114265	      0.00000000	     18.27546018	     -6.71740984	     -3.82360167	     75.11105408	      1.31093520	      9.24325578	     -6.14273063	      0.00000000	      0.00133569	      0.24215970	      0.22464543	      0.00248052	      0.32207240	      0.23868577	      0.00219441	      0.58878710	      0.23868577	      0.00152656	      0.58878710	      0.19656475	      0.00124033	      0.49381206	      0.18252441	      0.00076322	      0.37510538	      0.16848407	      0.00954073	      2.73935898	      1.24941048	      0.00000000	      0.00000000	      0.00000000	      0.00000000	      0.00000000	      4.57931217	    -13.65106702	     11.90166741	     24.12075315	     52.91760730	      0.00000000	      5.00000013	     -8.54366867	    -13.13892872	     34.35091468	     22.13427884	     55.37011394	      0.00000000	      5.00000013
      2.66666667	      2.50107884	     -1.72037818	     -3.11368631	     -0.54361281	      0.96966800	      0.35501522	      1.78170225	      4.86332327	    -12.61872087	     14.57299554	      0.25434675	     12.11324523	      6.86947190	      0.00000000	     24.42966395	     -6.52532687	     -4.89649797	     72.36933122	      1.26308311	     11.95145640	     -8.73866636	      0.00000000	     -0.00299130	      0.20713577	      0.66431429	     -0.00555514	      0.27549057	      0.70583393	     -0.00491440	      0.50362991	      0.70583393	     -0.00341875	      0.50362991	      0.58127500	     -0.00277772	      0.42239126	      0.53975536	     -0.00170923	      0.32085331	      0.49823572	     -0.02136654	      2.34316125	      3.69471678	      0.00000000	      0.00000000	      0.00000000	      0.00000000	      0.00000000	      8.94897238	    -14.95925570	     18.52093305	     24.34600214	     53.08748858	      0.00000000	      5.00000013	    -10.49037153	    -12.94829014	     32.93855902	     21.86527589	     55.61031321	      0.00000000	      5.00000013
      2.70000000	      1.94995843	     -1.31162086	     -5.87406077	     -0.50826902	      0.97150369	      0.36035657	     -1.07661259	      4.63289770	    -10.59691961	     12.43181919	      0.21697618	     12.50612127	      8.20084328	      0.00000000	     28.91459649	     -6.75487066	     -6.55590520	     65.86178870	      1.14950506	     11.98738083	    -12.36200707	      0.00000000	     -0.00569814	      0.15702533	      1.17390157	     -0.01058202	      0.20884369	      1.24727042	     -0.00936148	      0.38179139	      1.24727042	     -0.00651241	      0.38179139	      1.02716388	     -0.00529129	      0.32020606	      0.95379503	     -0.00325592	      0.24323224	      0.88042618	     -0.04070126	      1.77630195	      6.52888838	      0.00000000	      0.00000000	      0.00000000	      0.00000000	      0.00000000	     12.25480263	    -15.25851795	     19.33847013	     25.74545535	     53.07109391	      0.00000000	      5.00000014	    -12.32643397	    -13.18269799	     32.30839048	     22.16851218	     55.46367143	      0.00000000	      5.00000014
      2.73333333	      1.40922687	     -0.94333903	     -8.94129337	     -0.47184361	      0.97032449	      0.36613548	     -3.70810860	      4.30115085	     -6.92384876	     10.86685287	      0.18966236	     13.36745412	      7.68429970	      0.00000000	     31.47161466	     -7.55594977	     -8.80984089	     56.59312693	      0.98773640	     10.10300764	    -15.88691102	      0.00000000	     -0.00709136	      0.10531974	      1.65594528	     -0.01316937	      0.14007526	      1.75944186	     -0.01165040	      0.25607442	      1.75944186	     -0.00810472	      0.25607442	      1.44895212	     -0.00658504	      0.21476802	      1.34545554	     -0.00405200	      0.16314028	      1.24195896	     -0.05065290	      1.19139797	      9.20987087	      0.00000000	      0.00000000	      0.00000000	      0.00000000	      0.00000000	     15.89899676	    -16.08635088	     25.82138067	     27.34674699	     50.90919863	      0.00000000	      5.00000014	    -15.99446350	    -11.58910314	     17.03042131	     23.85478830	     53.29669207	      0.00000000	      5.00000014
      2.76666667	      1.01349179	     -0.60759964	    -11.54414358	     -0.43367156	      0.96649813	      0.37118908	     -6.57791678	      3.63400894	     -4.56745912	      9.31000112	      0.16249017	     14.66589878	      8.59784959	      0.00000000	     32.16524904	     -8.40085122	    -11.42788846	     45.48013362	      0.79377808	      7.53751994	    -17.49035159	      0.00000000	     -0.00880518	      0.06270681	      2.06197682	     -0.01635209	      0.08340006	      2.19085037	     -0.01446603	      0.15246534	      2.19085037	     -0.01006344	      0.15246534	      1.80422972	     -0.00817649	      0.12787173	      1.67535616	     -0.00503128	      0.09713285	      1.54648261	     -0.06289450	      0.70935197	     11.46809646	      0.00000000	      0.00000000	      0.00000000	      0.00000000	      0.00000000	     18.15566500	    -16.00762090	     26.06035064	     29.97454503	     50.76525727	      0.00000000	      5.00000014	    -17.58881931	    -11.66963390	     16.14154695	     23.85534051	     53.19025095	      0.00000000	      5.00000014
      2.80000000	      0.70773545	     -0.56777042	    -14.33051270	     -0.39350981	      0.96001546	      0.37567461	     -9.26485125	      3.04961159	      0.48163284	      8.54573367	      0.14915119	     16.00946118	      5.83564815	      0.00000000	     31.38647983	     -9.40969496	    -14.62156246	     33.86113207	      0.59098824	      5.11309505	    -17.29013590	      0.00000000	     -0.00539687	      0.05054592	      2.45523604	     -0.01002253	      0.06722608	      2.60868829	     -0.00886652	      0.12289736	      2.60868829	     -0.00616808	      0.12289736	      2.14833153	     -0.00501153	      0.10307325	      1.99487928	     -0.00308377	      0.07829564	      1.84142703	     -0.03854931	      0.57178561	     13.65528628	      0.00000000	      0.00000000	      0.00000000	      0.00000000	      0.00000000	     19.98211735	    -15.91169661	     28.13470378	     32.59299545	     36.40025294	      0.00000000	      5.00000014	    -20.21289323	     -8.78854261	     -2.79499289	     24.92136898	     65.40282688	      0.00000000	      5.00000014
      2.83333333	      0.60681540	     -0.73565525	    -16.29591871	     -0.35061754	      0.95187929	      0.37834251	    -12.18445596	      2.18245443	      2.43203618	      8.05707673	      0.14062252	     17.75298622	      6.33471109	      0.00000000	     30.05862067	     -9.71378404	    -16.33179135	     23.63618580	      0.41252926	      2.79951666	    -16.38689733	      0.00000000	     -0.00152448	      0.07110145	      2.71784349	     -0.00283111	      0.09456493	      2.88770871	     -0.00250457	      0.17287606	      2.88770871	     -0.00174233	      0.17287606	      2.37811306	     -0.00141563	      0.14499007	      2.20824784	     -0.00087109	      0.11013614	      2.03838262	     -0.01088921	      0.80431379	     15.11583015	      0.00000000	      0.00000000	      0.00000000	      0.00000000	      0.00000000	     20.86527653	    -15.84977086	     27.84732440	     35.46497445	     36.35652713	      0.00000000	      5.00000014	    -21.20481993	     -8.32220633	     -4.20835404	     24.02007016	     65.02553394	      0.00000000	      5.00000014
      2.86666667	      0.59829532	     -1.07098702	    -17.82281355	     -0.30542011	      0.94323440	      0.38042368	    -14.89119920	      1.41054789	      5.64229664	      8.41602159	      0.14688729	     18.91608632	      4.26032446	      0.00000000	     28.91268185	    -10.10319370	    -17.45508650	     16.91881365	      0.29528900	      1.91678872	    -13.98373196	      0.00000000	      0.00157161	      0.09973390	      2.88296050	      0.00291864	      0.13264609	      3.06314553	      0.00258200	      0.24249301	      3.06314553	      0.00179620	      0.24249301	      2.52259044	      0.00145940	      0.20337737	      2.34240541	      0.00089802	      0.15448782	      2.16222038	      0.01122588	      1.12820986	     16.03416142	      0.00000000	      0.00000000	      0.00000000	      0.00000000	      0.00000000	     20.85693751	    -15.42835445	     26.41410703	     38.00692644	     35.86118674	      0.00000000	      5.00000014	    -22.25629529	     -5.31058334	    -19.90662857	     24.23042878	     61.38959566	      0.00000000	      5.00000014
